<svg xmlns="http://www.w3.org/2000/svg" width="1000" height="1000" viewBox="0 0 1000 1000">
  <defs>
    <style>
      .cls-1 {
        fill-rule: evenodd;
      }
    </style>
  </defs>
  <path id="TkAst" class="cls-1" d="M237.093,373.423H16.476V422.55H94.245V637.366h63.629V422.55h79.219V373.423ZM617.1,637.366h64.224L589.676,373.771H533.458l-90.97,263.595h63.883l14.31-49.243h81.942Zm-55.536-189.73,26.746,91.425H534.991ZM791.118,595.491q-6.254,5.077-18.762,5.076-13.6,0-22.3-6.255T741,574.462h-57.1q0,17.225,11.058,32.812t30.817,24.654q19.756,9.063,44.957,9.064,37.887,0,61.726-16.859t23.838-43.688q0-39.336-44.232-54.566a220.556,220.556,0,0,0-30.727-7.8q-17.5-3.262-25.47-8.338t-7.976-13.234a16.563,16.563,0,0,1,6.526-13.324q6.527-5.344,16.134-5.348,24.834,0,24.835,23.567h61.273q0-28.641-23.566-46.227T770.724,437.6q-36.075,0-58.372,17.494t-22.3,44.5a47.822,47.822,0,0,0,7.8,27.011q7.792,11.785,22.66,20.031t37.706,13.324q22.842,5.077,31,9.789t8.158,12.508A16.234,16.234,0,0,1,791.118,595.491ZM894.9,392.458v48.764H869.884v42.419H894.9v97.347q0,30.277,15.046,45.139t46.589,14.865a112.775,112.775,0,0,0,34.443-5.257V592.047a89.656,89.656,0,0,1-15.227,1.087q-11.787,0-15.772-4.351t-3.988-15.408V483.641H988.26V441.222H955.992V392.458H894.9ZM370.208,637.366h69.974L366.945,521.891l68.7-80.669H362.413l-46.045,57.284-6.164,8.158V373.59H249.113V637.366H310.2V581.532l17.222-17.221Z"/>
</svg>
